<svg
  width="27"
  height="17"
  viewBox="0 0 27 17"
  fill="none"
  xmlns="http://www.w3.org/2000/svg"
>
<path
    d="M23.4182 14.9135C23.9407 15.1891 24.3814 15.1254 24.7404 14.7223C25.0994 14.3193 25.149 13.8686 24.8894 13.3702L22.7884 9.44223L21.0913 13.7067L23.4182 14.9135ZM16.9759 13.75H19.0288L22.0529 6.26442C22.1795 5.9455 22.1879 5.68467 22.0781 5.48194C21.9683 5.27921 21.7949 5.12656 21.5577 5.02399L19.0577 4.02399C18.774 3.91341 18.4996 3.91421 18.2343 4.02639C17.9691 4.13857 17.8157 4.34451 17.774 4.6442L16.9759 13.75ZM7.84612 13.75H9.89904L9.10096 4.59612C9.05929 4.31887 8.90985 4.12656 8.65263 4.01918C8.39542 3.91181 8.11696 3.91341 7.81728 4.02399L5.31728 5.02399C5.04643 5.13457 4.87656 5.30325 4.80765 5.53002C4.73874 5.75679 4.75957 6.01762 4.87016 6.3125L7.84612 13.75ZM3.45672 14.9135L5.78366 13.7067L4.11056 9.44223L1.98553 13.4182C1.70989 13.9247 1.76157 14.3654 2.14058 14.7404C2.5196 15.1154 2.95831 15.1731 3.45672 14.9135ZM11.774 13.75H15.101L16.0625 2.89902C16.1042 2.61536 16.0333 2.37376 15.8498 2.17424C15.6663 1.97472 15.4247 1.87495 15.125 1.87495H11.75C11.5112 1.87495 11.288 1.96871 11.0805 2.15621C10.873 2.34371 10.7836 2.57529 10.8125 2.85094L11.774 13.75ZM2.79956 16.899C1.99969 16.899 1.33312 16.6109 0.799874 16.0348C0.266625 15.4587 0 14.7708 0 13.9711C0 13.7294 0.0324516 13.4927 0.0973549 13.261C0.162258 13.0293 0.246793 12.8029 0.35096 12.5817L3.17308 7.18748C2.88943 6.41024 2.87781 5.64141 3.13822 4.881C3.39863 4.12059 3.89262 3.58974 4.62018 3.28846L7.12018 2.28846C7.4439 2.16025 7.77163 2.08533 8.10336 2.0637C8.43509 2.04207 8.74679 2.10257 9.03846 2.2452C9.21794 1.61699 9.55207 1.08574 10.0408 0.651445C10.5296 0.217148 11.1055 0 11.7685 0H15.125C15.7836 0 16.3594 0.211138 16.8521 0.633415C17.3449 1.05569 17.6891 1.57693 17.8846 2.19712C18.1522 2.05929 18.4519 2.01001 18.7836 2.04927C19.1153 2.08854 19.4391 2.16827 19.7548 2.28846L22.2548 3.28846C23.008 3.58974 23.5272 4.11858 23.8125 4.87499C24.0977 5.63139 24.0689 6.38139 23.7259 7.12498L26.548 12.5192C26.657 12.7243 26.7427 12.935 26.8052 13.1512C26.8677 13.3674 26.899 13.5927 26.899 13.8269C26.899 14.6843 26.6053 15.4106 26.018 16.006C25.4307 16.6013 24.7101 16.899 23.8563 16.899C23.6476 16.899 23.4434 16.875 23.2436 16.8269C23.0438 16.7788 22.844 16.7067 22.6442 16.6105L20.6586 15.625H6.17786L4.35574 16.5865C4.11696 16.7163 3.86455 16.8008 3.59853 16.8401C3.33251 16.8794 3.06618 16.899 2.79956 16.899Z"
    fill="currentColor"
  />
</svg>
