<svg
  width="24"
  height="24"
  viewBox="0 0 24 24"
  fill="none"
  xmlns="http://www.w3.org/2000/svg"
>
<path
    d="M8.37113 21.3423C7.90953 21.3423 7.51705 21.1806 7.19369 20.8572C6.87033 20.5339 6.70865 20.1414 6.70865 19.6798C6.70865 19.2182 6.87033 18.8257 7.19369 18.5023C7.51705 18.179 7.90953 18.0173 8.37113 18.0173C8.83273 18.0173 9.22521 18.179 9.54857 18.5023C9.87193 18.8257 10.0336 19.2182 10.0336 19.6798C10.0336 20.1414 9.87193 20.5339 9.54857 20.8572C9.22521 21.1806 8.83273 21.3423 8.37113 21.3423V21.3423M17.5788 21.3423C17.1172 21.3423 16.7247 21.1806 16.4014 20.8572C16.078 20.5339 15.9163 20.1414 15.9163 19.6798C15.9163 19.2182 16.078 18.8257 16.4014 18.5023C16.7247 18.179 17.1172 18.0173 17.5788 18.0173C18.0404 18.0173 18.4329 18.179 18.7562 18.5023C19.0796 18.8257 19.2413 19.2182 19.2413 19.6798C19.2413 20.1414 19.0796 20.5339 18.7562 20.8572C18.4329 21.1806 18.0404 21.3423 17.5788 21.3423V21.3423M7.28957 6.32497L9.69747 11.3673H16.1739C16.2287 11.3673 16.2774 11.3536 16.3201 11.3262C16.3627 11.2988 16.3992 11.2607 16.4297 11.212L18.9782 6.58075C19.0148 6.51376 19.0178 6.45438 18.9874 6.40262C18.9569 6.35085 18.9052 6.32497 18.8321 6.32497H7.28957V6.32497M6.60632 4.9H19.7966C20.1852 4.9 20.479 5.06534 20.6781 5.39601C20.8773 5.72668 20.8867 6.06436 20.7065 6.40904L17.6628 11.9227C17.5069 12.1967 17.3008 12.4101 17.0444 12.563C16.788 12.7158 16.507 12.7923 16.2013 12.7923H9.26996L8.17015 14.8019C8.12143 14.875 8.11991 14.9541 8.16559 15.0394C8.21126 15.1247 8.27978 15.1673 8.37113 15.1673H19.2413V16.5923H8.37113C7.7378 16.5923 7.26189 16.3191 6.9434 15.7729C6.62491 15.2266 6.61365 14.6813 6.90961 14.1369L8.26519 11.6998L4.80865 4.42497H3V3H5.70382L6.60632 4.9V4.9M9.69747 11.3673V11.3673H16.3475V11.3673V11.3673V11.3673H9.69747V11.3673"
    fill="currentColor"
  />
</svg>
