<svg
  width="86"
  height="86"
  viewBox="0 0 86 86"
  fill="none"
  xmlns="http://www.w3.org/2000/svg"
>
<path
    d="M41.25 85.1236C38.5 85.1236 35.7292 84.8111 32.9375 84.1861C30.1458 83.5611 27.2917 82.6653 24.375 81.4986C25.375 71.4153 28.2917 61.9986 33.125 53.2486C37.9583 44.4986 44.1667 36.7903 51.75 30.1236C42.5833 34.7903 34.6458 40.9569 27.9375 48.6236C21.2292 56.2903 16.5417 65.0403 13.875 74.8736C13.5417 74.6236 13.2292 74.3528 12.9375 74.0611C12.6458 73.7694 12.3333 73.4569 12 73.1236C8.08333 69.2069 5.10417 64.8319 3.0625 59.9986C1.02083 55.1653 0 50.1236 0 44.8736C0 39.2069 1.125 33.7903 3.375 28.6236C5.625 23.4569 8.75 18.8736 12.75 14.8736C19.5 8.1236 28.25 3.72776 39 1.6861C49.75 -0.355571 64.8333 -0.543071 84.25 1.1236C85.75 21.0403 85.5 36.2278 83.5 46.6861C81.5 57.1444 77.1667 65.7069 70.5 72.3736C66.4167 76.4569 61.8542 79.6028 56.8125 81.8111C51.7708 84.0194 46.5833 85.1236 41.25 85.1236Z"
    fill="currentColor"
  />
</svg>
