<svg
  width="24"
  height="24"
  viewBox="0 0 24 24"
  fill="none"
  xmlns="http://www.w3.org/2000/svg"
>
<path
    d="M12.0323 21.0499C10.79 21.0499 9.61983 20.8127 8.52185 20.3383C7.42388 19.864 6.46627 19.2181 5.64903 18.4009C4.83179 17.5837 4.18597 16.6261 3.71158 15.5281C3.23719 14.4301 3 13.26 3 12.0177C3 10.7754 3.23719 9.60765 3.71158 8.51455C4.18597 7.42144 4.83179 6.46627 5.64903 5.64903C6.46627 4.83179 7.42388 4.18597 8.52185 3.71158C9.61983 3.23719 10.79 3 12.0323 3C13.2746 3 14.4423 3.23719 15.5354 3.71158C16.6285 4.18597 17.5837 4.83179 18.4009 5.64903C19.2181 6.46627 19.864 7.42144 20.3383 8.51455C20.8127 9.60765 21.0499 10.7754 21.0499 12.0177C21.0499 13.26 20.8127 14.4301 20.3383 15.5281C19.864 16.6261 19.2181 17.5837 18.4009 18.4009C17.5837 19.2181 16.6285 19.864 15.5354 20.3383C14.4423 20.8127 13.2746 21.0499 12.0323 21.0499V21.0499M12.025 19.6049C12.5097 18.9618 12.9177 18.3132 13.249 17.6592C13.5803 17.0051 13.8501 16.2902 14.0583 15.5144H9.99158C10.212 16.3146 10.4849 17.0417 10.8101 17.6957C11.1352 18.3498 11.5402 18.9861 12.025 19.6049V19.6049M10.1853 19.3436C9.82113 18.8211 9.4941 18.2271 9.20422 17.5615C8.91435 16.8958 8.68902 16.2135 8.52825 15.5144H5.30553C5.80733 16.5009 6.48025 17.3297 7.3243 18.0008C8.16835 18.6719 9.12202 19.1195 10.1853 19.3436V19.3436M13.8646 19.3436C14.9279 19.1195 15.8816 18.6719 16.7256 18.0008C17.5697 17.3297 18.2426 16.5009 18.7444 15.5144H15.5217C15.3305 16.2196 15.0899 16.905 14.8 17.5706C14.5102 18.2362 14.1984 18.8272 13.8646 19.3436V19.3436M4.70814 14.0894H8.23961C8.17993 13.7362 8.13669 13.39 8.10989 13.0508C8.0831 12.7116 8.0697 12.3696 8.0697 12.025C8.0697 11.6803 8.0831 11.3383 8.10989 10.9991C8.13669 10.6599 8.17993 10.3137 8.23961 9.96053H4.70814C4.61679 10.2833 4.54676 10.6188 4.49804 10.9672C4.44932 11.3155 4.42497 11.6681 4.42497 12.025C4.42497 12.3818 4.44932 12.7344 4.49804 13.0828C4.54676 13.4311 4.61679 13.7666 4.70814 14.0894V14.0894M9.66457 14.0894H14.3854C14.445 13.7362 14.4883 13.393 14.5151 13.0599C14.5419 12.7268 14.5553 12.3818 14.5553 12.025C14.5553 11.6681 14.5419 11.3231 14.5151 10.99C14.4883 10.6569 14.445 10.3137 14.3854 9.96053H9.66457C9.60489 10.3137 9.56165 10.6569 9.53486 10.99C9.50806 11.3231 9.49467 11.6681 9.49467 12.025C9.49467 12.3818 9.50806 12.7268 9.53486 13.0599C9.56165 13.393 9.60489 13.7362 9.66457 14.0894V14.0894M15.8103 14.0894H19.3418C19.4331 13.7666 19.5032 13.4311 19.5519 13.0828C19.6006 12.7344 19.625 12.3818 19.625 12.025C19.625 11.6681 19.6006 11.3155 19.5519 10.9672C19.5032 10.6188 19.4331 10.2833 19.3418 9.96053H15.8103C15.87 10.3137 15.9132 10.6599 15.94 10.9991C15.9668 11.3383 15.9802 11.6803 15.9802 12.025C15.9802 12.3696 15.9668 12.7116 15.94 13.0508C15.9132 13.39 15.87 13.7362 15.8103 14.0894V14.0894M15.5217 8.53556H18.7444C18.2365 7.53683 17.5682 6.70801 16.7393 6.04909C15.9105 5.39018 14.9523 4.93953 13.8646 4.69717C14.2288 5.25012 14.5528 5.85483 14.8366 6.51131C15.1204 7.1678 15.3487 7.84255 15.5217 8.53556V8.53556M9.99158 8.53556H14.0583C13.8379 7.74146 13.5605 7.00977 13.2262 6.3405C12.8918 5.67123 12.4914 5.03942 12.025 4.44506C11.5585 5.03942 11.1581 5.67123 10.8238 6.3405C10.4894 7.00977 10.212 7.74146 9.99158 8.53556V8.53556M5.30553 8.53556H8.52825C8.7012 7.84255 8.92957 7.1678 9.21336 6.51131C9.49715 5.85483 9.82113 5.25012 10.1853 4.69717C9.09157 4.93953 8.13181 5.3917 7.30603 6.05366C6.48025 6.71562 5.81342 7.54292 5.30553 8.53556V8.53556"
    fill="currentColor"
  />
</svg>
