<svg
  width="26"
  height="26"
  viewBox="0 0 26 26"
  fill="none"
  xmlns="http://www.w3.org/2000/svg"
>
<path
    d="M4.12497 21.3749H21.3749V19.125H4.12497V21.3749ZM2.71152 25.4999C1.95383 25.4999 1.31249 25.2374 0.787493 24.7124C0.262498 24.1874 0 23.5461 0 22.7884V2.71152C0 1.95383 0.262498 1.31249 0.787493 0.787493C1.31249 0.262498 1.95383 0 2.71152 0H22.7884C23.5461 0 24.1874 0.262498 24.7124 0.787493C25.2374 1.31249 25.4999 1.95383 25.4999 2.71152V22.7884C25.4999 23.5461 25.2374 24.1874 24.7124 24.7124C24.1874 25.2374 23.5461 25.4999 22.7884 25.4999H2.71152ZM2.71152 23.2499H22.7884C22.9038 23.2499 23.0095 23.2019 23.1057 23.1057C23.2019 23.0095 23.2499 22.9038 23.2499 22.7884V2.71152C23.2499 2.59612 23.2019 2.49035 23.1057 2.39419C23.0095 2.29803 22.9038 2.24995 22.7884 2.24995H2.71152C2.59612 2.24995 2.49035 2.29803 2.39419 2.39419C2.29803 2.49035 2.24995 2.59612 2.24995 2.71152V22.7884C2.24995 22.9038 2.29803 23.0095 2.39419 23.1057C2.49035 23.2019 2.59612 23.2499 2.71152 23.2499Z"
    fill="currentColor"
  />
</svg>
