<svg
  width="22"
  height="21"
  viewBox="0 0 22 21"
  fill="none"
  xmlns="http://www.w3.org/2000/svg"
>
<path
    d="M7.03595 16.9326L10.9734 14.5576L14.9109 16.9638L13.8797 12.4638L17.3484 9.46383L12.7859 9.05758L10.9734 4.80758L9.16095 9.02633L4.59845 9.43258L8.0672 12.4638L7.03595 16.9326V16.9326M4.19226 20.8532L5.98311 13.1417L0 7.95665L7.89415 7.27156L10.9734 0L14.0527 7.27156L21.9469 7.95665L15.9638 13.1417L17.7546 20.8532L10.9734 16.7618L4.19226 20.8532V20.8532M10.9734 11.2138V11.2138V11.2138V11.2138V11.2138V11.2138V11.2138V11.2138V11.2138V11.2138V11.2138V11.2138"
    fill="currentColor"
  />
</svg>
