<svg
  width="24"
  height="24"
  viewBox="0 0 24 24"
  fill="none"
  xmlns="http://www.w3.org/2000/svg"
>
<path
    d="M12.2125 15.0625C13.0041 15.0625 13.6771 14.7854 14.2312 14.2312C14.7854 13.6771 15.0625 13.0041 15.0625 12.2125C15.0625 11.4208 14.7854 10.7479 14.2312 10.1937C13.6771 9.63957 13.0041 9.36248 12.2125 9.36248C11.4208 9.36248 10.7479 9.63957 10.1937 10.1937C9.63957 10.7479 9.36248 11.4208 9.36248 12.2125C9.36248 13.0041 9.63957 13.6771 10.1937 14.2312C10.7479 14.7854 11.4208 15.0625 12.2125 15.0625V15.0625M12.2125 16.4874C11.0262 16.4874 10.0171 16.0715 9.1853 15.2397C8.35344 14.4078 7.93752 13.3988 7.93752 12.2125C7.93752 11.0262 8.35344 10.0171 9.1853 9.1853C10.0171 8.35344 11.0262 7.93752 12.2125 7.93752C13.3988 7.93752 14.4078 8.35344 15.2397 9.1853C16.0715 10.0171 16.4874 11.0262 16.4874 12.2125C16.4874 13.3988 16.0715 14.4078 15.2397 15.2397C14.4078 16.0715 13.3988 16.4874 12.2125 16.4874V16.4874M5.56248 12.925H2V11.5H5.56248V12.925V12.925M22.425 12.925H18.8625V11.5H22.425V12.925V12.925M11.5 5.56248V2H12.925V5.56248H11.5V5.56248M11.5 22.425V18.8625H12.925V22.425H11.5V22.425M7.05692 8.01055L4.83174 5.8621L5.83835 4.80799L7.98132 7.00942L7.05692 8.01055V8.01055M18.5866 19.617L16.429 17.4009L17.368 16.4144L19.5932 18.5629L18.5866 19.617V19.617M16.4144 7.05692L18.5629 4.83174L19.617 5.83835L17.4155 7.98132L16.4144 7.05692V7.05692M4.80799 18.5866L7.02403 16.429L7.99228 17.368L5.85296 19.6024L4.80799 18.5866V18.5866M12.2125 12.2125V12.2125V12.2125V12.2125V12.2125V12.2125V12.2125V12.2125V12.2125V12.2125"
    fill="currentColor"
  />
</svg>
